<?xml version="1.0" encoding="UTF-8"?>
<svg width="583px" height="100px" viewBox="0 0 583 100" version="1.1" xmlns="http://www.w3.org/2000/svg" xmlns:xlink="http://www.w3.org/1999/xlink">
    <!-- Generator: Sketch 52.3 (67297) - http://www.bohemiancoding.com/sketch -->
    <title>Group 5</title>
    <desc>Created with Sketch.</desc>
    <g id="Design" stroke="none" stroke-width="1" fill="none" fill-rule="evenodd">
        <g id="KB-G-Pay-Desktop" transform="translate(-348.000000, -60.000000)">
            <g id="Group-4">
                <g id="Group-5" transform="translate(348.000000, 60.000000)">
                    <g id="Group-22">
                        <g id="logo_kb386edad5a7fc141e26c67f40edb7435ebf43cc8edbf71f87f3828b2299f4f37a">
                            <g id="logo-kb-positive" transform="translate(2.083334, 2.083334)">
                                <path d="M147.416667,44.5833334 L177.116667,26.8416666 C179.75,25.24375 178.254167,23.5958334 176.454167,23.5958334 L176.454167,22.8979166 L197.645833,22.8979166 L197.645833,23.5979166 C194.102625,24.3042052 190.733048,25.700881 187.729167,27.7083334 L161,43.425 L192.125,68.2916666 C194.475,70.0875 196.516667,71.9291666 199.166667,72.2291666 L199.166667,72.9375 L177.891667,72.9375 L147.416667,47.6395834 L147.416667,67.11875 C147.24117,68.4823128 147.692778,69.8519806 148.644877,70.843751 C149.596977,71.8355216 150.947079,72.3426352 152.316667,72.2229166 L152.316667,72.93125 L130.329167,72.93125 L130.329167,72.2270834 C133.454167,72.2270834 134.252083,70.3833334 134.252083,67.1229166 L134.252083,28.7020834 C134.252083,25.4416666 133.460417,23.59375 130.33125,23.59375 L130.33125,22.8958334 L152.3125,22.8958334 L152.3125,23.5958334 C150.942782,23.4772228 149.59306,23.9854596 148.641763,24.9780472 C147.690466,25.970635 147.240001,27.3407204 147.416667,28.7041666 L147.416667,44.5833334 Z M268.885416,58.6583334 C268.885416,67.2979166 261.09375,72.825 242.370834,72.9291666 L206.208334,72.9166666 L206.208334,72.2291666 C207.578612,72.350232 208.929922,71.8437104 209.883002,70.8517624 C210.83608,69.8598144 211.288212,68.4893486 211.1125,67.125 L211.1125,28.7020834 C211.28797,27.3374144 210.835912,25.9667034 209.883038,24.9741602 C208.930164,23.9816168 207.57902,23.4740572 206.208334,23.59375 L206.208334,22.8958334 L244.53125,22.8958334 C260.364584,22.8958334 265.952084,28.2395834 265.952084,34.4458334 C265.952084,42.825 257.389584,45.675 249.44375,46.4458334 C257.8125,46.4458334 268.885416,49.3 268.885416,58.6604166 L268.885416,58.6583334 Z M251.71875,36.0416666 C251.71875,29.1666666 243.964584,28.2708334 236.01875,28.3333334 C232.092746,28.3246128 228.169524,28.5430334 224.26875,28.9875 L224.26875,43.75 C224.26875,43.75 228.970834,43.9583334 232.110416,43.9583334 C247.914584,43.8479166 251.714584,41.7541666 251.714584,36.0416666 L251.71875,36.0416666 Z M239.297916,67.2354166 C246.06875,67.2354166 254.439584,66.1354166 254.439584,58.5104166 C254.439584,48.0270834 237.210416,49.1354166 224.272916,49.93125 L224.272916,63.2916666 C224.720222,65.5541196 226.738606,67.1608936 229.04375,67.0895834 C232.070834,67.225 239.3,67.2395834 239.3,67.2395834 L239.297916,67.2354166 Z" id="Shape" fill="#000000" fill-rule="nonzero"></path>
                                <polygon id="Shape" fill="#CC0033" points="0 0 95.8333334 0 95.8333334 47.9166666 0 47.9166666"></polygon>
                                <polygon id="Shape" fill="#000011" points="0 47.9166666 95.8333334 47.9166666 95.8333334 95.8333334 0 95.8333334"></polygon>
                                <polygon id="Shape" fill="#FFFFFF" points="20.8333334 47.9166666 75 47.9166666 75 52.0833334 20.8333334 52.0833334"></polygon>
                            </g>
                            <g id="logo-kb">
                                <polygon id="Shape" fill="#FFFFFF" points="0 0 100 0 100 100 0 100"></polygon>
                                <path d="M149.5,46.6666666 L179.2,28.925 C181.833333,27.3270834 180.3375,25.6791666 178.5375,25.6791666 L178.5375,24.98125 L199.729167,24.98125 L199.729167,25.68125 C196.185959,26.3875386 192.816381,27.7842142 189.8125,29.7916666 L163.083333,45.5083334 L194.208333,70.375 C196.558333,72.1708334 198.6,74.0125 201.25,74.3125 L201.25,75.0208334 L179.975,75.0208334 L149.5,49.7229166 L149.5,69.2020834 C149.324503,70.565646 149.776111,71.9353138 150.728211,72.9270844 C151.68031,73.918855 153.030412,74.4259686 154.4,74.30625 L154.4,75.0145834 L132.4125,75.0145834 L132.4125,74.3104166 C135.5375,74.3104166 136.335417,72.4666666 136.335417,69.20625 L136.335417,30.7854166 C136.335417,27.525 135.54375,25.6770834 132.414583,25.6770834 L132.414583,24.9791666 L154.395833,24.9791666 L154.395833,25.6791666 C153.026115,25.560556 151.676393,26.0687928 150.725096,27.0613806 C149.773799,28.0539682 149.323334,29.4240536 149.5,30.7875 L149.5,46.6666666 Z M270.96875,60.7416666 C270.96875,69.38125 263.177084,74.9083334 244.454166,75.0125 L208.291666,75 L208.291666,74.3125 C209.661946,74.4335652 211.013254,73.9270438 211.966334,72.9350958 C212.919414,71.9431478 213.371546,70.572682 213.195834,69.2083334 L213.195834,30.7854166 C213.371304,29.4207478 212.919246,28.0500368 211.966372,27.0574934 C211.013498,26.0649502 209.662354,25.5573906 208.291666,25.6770834 L208.291666,24.9791666 L246.614584,24.9791666 C262.447916,24.9791666 268.035416,30.3229166 268.035416,36.5291666 C268.035416,44.9083334 259.472916,47.7583334 251.527084,48.5291666 C259.895834,48.5291666 270.96875,51.3833334 270.96875,60.74375 L270.96875,60.7416666 Z M253.802084,38.125 C253.802084,31.25 246.047916,30.3541666 238.102084,30.4166666 C234.176078,30.4079462 230.252858,30.6263666 226.352084,31.0708334 L226.352084,45.8333334 C226.352084,45.8333334 231.054166,46.0416666 234.19375,46.0416666 C249.997916,45.93125 253.797916,43.8375 253.797916,38.125 L253.802084,38.125 Z M241.38125,69.31875 C248.152084,69.31875 256.522916,68.21875 256.522916,60.59375 C256.522916,50.1104166 239.29375,51.21875 226.35625,52.0145834 L226.35625,65.375 C226.803556,67.637453 228.821938,69.2442268 231.127084,69.1729166 C234.154166,69.3083334 241.383334,69.3229166 241.383334,69.3229166 L241.38125,69.31875 Z" id="Shape" fill="#FFFFFF" fill-rule="nonzero"></path>
                                <polygon id="Shape" fill="#CC0033" points="2.08333334 2.08333334 97.9166666 2.08333334 97.9166666 50 2.08333334 50"></polygon>
                                <polygon id="Shape" fill="#000011" points="2.08333334 50 97.9166666 50 97.9166666 97.9166666 2.08333334 97.9166666"></polygon>
                                <polygon id="Shape" fill="#FFFFFF" points="22.9166666 50 77.0833334 50 77.0833334 54.1666666 22.9166666 54.1666666"></polygon>
                            </g>
                        </g>
                        <g id="google-pay-logo" transform="translate(334.000000, 0.000000)">
                            <path d="M117.761009,48.9028571 L117.761009,77.9028571 L108.566284,77.9028571 L108.566284,6.28571429 L132.952294,6.28571429 C138.831626,6.16283137 144.516444,8.39486285 148.743234,12.4857143 C153.019772,16.3346189 155.424758,21.8453021 155.33945,27.6 C155.461936,33.3868402 153.052665,38.9386492 148.743234,42.8 C144.479014,46.8685714 139.215367,48.9009524 132.952294,48.8971429 L117.761009,48.8971429 L117.761009,48.9028571 Z M117.761009,15.1028571 L117.761009,40.1028571 L133.180734,40.1028571 C136.598882,40.2042345 139.901546,38.8600071 142.278372,36.4 C144.640776,34.1018962 145.973619,30.945334 145.973619,27.6485714 C145.973619,24.3518088 144.640776,21.1952467 142.278372,18.8971429 C139.930373,16.3842661 136.617459,15.0004924 133.180734,15.0971429 L117.761009,15.0971429 L117.761009,15.1028571 Z" id="Shape" fill="#FFFFFF" fill-rule="nonzero"></path>
                            <path d="M176.527294,27.3028571 C183.323394,27.3028571 188.687936,29.12 192.620917,32.7542857 C196.553899,36.3885714 198.518486,41.3714286 198.514679,47.7028571 L198.514679,77.9028571 L189.719725,77.9028571 L189.719725,71.1028571 L189.319954,71.1028571 C185.512615,76.7028571 180.448853,79.5028571 174.12867,79.5028571 C168.73367,79.5028571 164.220069,77.9028571 160.587867,74.7028571 C157.057696,71.7284077 155.056108,67.3198675 155.139564,62.7028571 C155.139564,57.632381 157.054656,53.6 160.884839,50.6057143 C164.715023,47.6114286 169.82828,46.1104762 176.22461,46.1028571 C181.684335,46.1028571 186.180803,47.1028571 189.714014,49.1028571 L189.714014,47 C189.735098,43.8526423 188.340561,40.8626348 185.916193,38.8571429 C183.484709,36.6621602 180.315894,35.4645014 177.041284,35.5028571 C171.905183,35.5028571 167.840849,37.6704762 164.84828,42.0057143 L156.750069,36.9028571 C161.204656,30.5028571 167.797064,27.3028571 176.527294,27.3028571 Z M164.631261,62.9028571 C164.618753,65.278522 165.754839,67.5136796 167.68094,68.9028571 C169.714505,70.5033998 172.238553,71.3512883 174.825413,71.3028571 C178.705445,71.2963694 182.424671,69.7511114 185.16805,67.0057143 C188.213922,64.1371429 189.736858,60.7714286 189.736858,56.9085714 C186.869931,54.6228571 182.872225,53.48 177.743739,53.48 C174.008739,53.48 170.894335,54.3809524 168.400528,56.1828571 C165.881972,58.0114286 164.631261,60.2342857 164.631261,62.9028571 Z" id="Shape" fill="#FFFFFF" fill-rule="nonzero"></path>
                            <polygon id="Path" fill="#FFFFFF" points="249 28.9028571 218.297615 99.5028571 208.805917 99.5028571 220.199381 74.8 200.010963 28.9028571 210.005229 28.9028571 224.596858 64.1028571 224.796743 64.1028571 238.988601 28.9028571"></polygon>
                            <path d="M80.6051835,42.6514286 C80.6086507,39.8477255 80.371727,37.0488928 79.8970183,34.2857143 L41.1192661,34.2857143 L41.1192661,50.1314286 L63.3293807,50.1314286 C62.4109995,55.2454405 59.4443132,59.7620148 55.1169495,62.6342857 L55.1169495,72.92 L68.3722018,72.92 C76.1334633,65.76 80.6051835,55.1714286 80.6051835,42.6514286 Z" id="Path" fill="#4285F4"></path>
                            <path d="M41.1192661,82.8571429 C52.2157569,82.8571429 61.5589679,79.2114286 68.3722018,72.9257143 L55.1169495,62.64 C51.4276376,65.1428571 46.676078,66.5714286 41.1192661,66.5714286 C30.3939908,66.5714286 21.2906422,59.3371429 18.035367,49.5885714 L4.38034404,49.5885714 L4.38034404,60.1885714 C11.3600761,74.0854687 25.5751674,82.856434 41.1192661,82.8571429 Z" id="Path" fill="#34A853"></path>
                            <path d="M18.035367,49.5885714 C16.3144197,44.4802537 16.3144197,38.9483177 18.035367,33.84 L18.035367,23.24 L4.38034404,23.24 C-1.45761597,34.863588 -1.45761597,48.5649834 4.38034404,60.1885714 L18.035367,49.5885714 Z" id="Path" fill="#FBBC04"></path>
                            <path d="M41.1192661,16.8571429 C46.983259,16.7612858 52.6494329,18.9781499 56.8930734,23.0285714 L68.6291972,11.2857143 C61.1872728,4.29186179 51.3283755,0.452119655 41.1192661,0.571428571 C25.5751674,0.572137416 11.3600761,9.34310277 4.38034404,23.24 L18.035367,33.84 C21.2906422,24.0914286 30.3939908,16.8571429 41.1192661,16.8571429 Z" id="Path" fill="#EA4335"></path>
                        </g>
                    </g>
                </g>
            </g>
        </g>
    </g>
</svg>