<svg xmlns="http://www.w3.org/2000/svg" viewBox="0 0 80 80"><defs><style>.cls-1{fill:#fff;}.cls-2{fill:#191919;}.cls-3{fill:#e3e3e3;}.cls-4{fill:#c03;}</style></defs><title>2</title><g id="Vrstva_2" data-name="Vrstva 2"><g id="Vrstva_1-2" data-name="Vrstva 1"><rect class="cls-1" width="80" height="80"/><path class="cls-2" d="M79.67,46.2a2,2,0,0,0-2-1.65H73a.71.71,0,0,1-.7-.47.7.7,0,0,1,.16-.82l3.33-3.34A2,2,0,0,0,76,37.37a21.45,21.45,0,0,0-2.32-2.79l-.28-.28A20.77,20.77,0,0,0,70.63,32a2,2,0,0,0-2.55.23l-3.34,3.33a.7.7,0,0,1-.82.16.71.71,0,0,1-.47-.7V30.3a2,2,0,0,0-1.65-2,22,22,0,0,0-7.6,0,2,2,0,0,0-1.65,2V35a.68.68,0,0,1-.2.52.92.92,0,0,1-.58.25.71.71,0,0,1-.51-.23l-3.33-3.33A2,2,0,0,0,45.38,32a16.69,16.69,0,0,0-1.69,1.3c-.38.32-.74.66-1.11,1l-.28.28A21.42,21.42,0,0,0,40,37.37a2,2,0,0,0,.23,2.55l3.38,3.39a.72.72,0,0,1,.1.8.71.71,0,0,1-.69.44H38.3a2,2,0,0,0-2,1.65,22,22,0,0,0,0,7.6,2,2,0,0,0,2,1.65H43a.71.71,0,0,1,.7.47.7.7,0,0,1-.16.82l-3.33,3.34A2,2,0,0,0,40,62.63a21.45,21.45,0,0,0,2.32,2.79l.28.28A20.77,20.77,0,0,0,45.37,68a2,2,0,0,0,2.55-.23l3.34-3.33a.7.7,0,0,1,.82-.16.71.71,0,0,1,.47.7V69.7a2,2,0,0,0,1.65,2A23.07,23.07,0,0,0,58,72a21.82,21.82,0,0,0,3.8-.33,2,2,0,0,0,1.65-2V65a.76.76,0,0,1,.55-.74.72.72,0,0,1,.74.2l3.34,3.33a2,2,0,0,0,2.55.23,20.8,20.8,0,0,0,2.79-2.32l.28-.28A21.42,21.42,0,0,0,76,62.63a2,2,0,0,0-.23-2.55l-3.33-3.34a.7.7,0,0,1-.16-.82.71.71,0,0,1,.7-.47H77.7a2,2,0,0,0,2-1.65,22,22,0,0,0,0-7.6Zm-3.73,5.25H73a4.76,4.76,0,0,0-3.37,8.12l2.09,2.09c-.27.32-.55.63-.85.93l-.25.26c-.31.3-.63.59-1,.86l-2.09-2.09a4.7,4.7,0,0,0-4.7-1.21A4.76,4.76,0,0,0,59.45,65v3c-.49,0-1,.06-1.51.06s-.93,0-1.39-.06V65a4.76,4.76,0,0,0-8.12-3.37l-2.09,2.09c-.32-.27-.63-.55-.93-.85l-.26-.26c-.3-.3-.59-.62-.86-.94l2.09-2.09A4.76,4.76,0,0,0,43,51.45H40.06C40,51,40,50.48,40,50s0-1,.06-1.45H43a4.76,4.76,0,0,0,3.62-7.85l-.25-.27-2.09-2.09c.27-.32.55-.63.85-.93l.25-.26c.28-.27.57-.54.9-.82l.05,0,2.09,2.09a4.69,4.69,0,0,0,3.34,1.4h0a4.85,4.85,0,0,0,3.41-1.45A4.69,4.69,0,0,0,56.55,35V32.06a17.55,17.55,0,0,1,2.9,0V35a4.76,4.76,0,0,0,8.12,3.37l2.09-2.09c.32.27.63.55.93.85l.26.26c.3.3.59.62.86.94l-2.09,2.09A4.76,4.76,0,0,0,73,48.55h3c0,.48.06,1,.06,1.45S76,51,75.94,51.45Z"/><path class="cls-3" d="M75.94,48.55H73a4.76,4.76,0,0,1-3.37-8.12l2.09-2.09c-.27-.32-.56-.64-.86-.94l-.26-.26c-.3-.3-.61-.58-.93-.85l-2.09,2.09A4.76,4.76,0,0,1,59.45,35V32.06a17.55,17.55,0,0,0-2.9,0V35a4.69,4.69,0,0,1-1.35,3.32,4.85,4.85,0,0,1-3.41,1.45h0a4.69,4.69,0,0,1-3.34-1.4l-2.09-2.09-.05,0c-.33.28-.62.55-.9.82l-.25.26c-.3.3-.58.61-.85.93l2.09,2.09.25.27A4.76,4.76,0,0,1,43,48.55H40.06C40,49,40,49.52,40,50s0,1,.06,1.45H43a4.76,4.76,0,0,1,3.37,8.12l-2.09,2.09c.27.32.56.64.86.94l.26.26c.3.3.61.58.93.85l2.09-2.09A4.76,4.76,0,0,1,56.55,65v3c.46,0,.92.06,1.39.06s1,0,1.51-.06V65a4.76,4.76,0,0,1,3.42-4.58,4.7,4.7,0,0,1,4.7,1.21l2.09,2.09c.32-.27.64-.56,1-.86l.25-.26c.3-.3.58-.61.85-.93l-2.09-2.09A4.76,4.76,0,0,1,73,51.45h3c0-.48.06-1,.06-1.45S76,49,75.94,48.55ZM65.5,55A9,9,0,0,1,58,59a9,9,0,1,1,0-18,8.76,8.76,0,0,1,2.41.33A9,9,0,0,1,65.5,55Z"/><path class="cls-2" d="M60.41,41.33A8.76,8.76,0,0,0,58,41a9,9,0,0,0,0,18,9,9,0,0,0,7.5-4,9,9,0,0,0-5.09-13.65Zm1.76,11.44A5,5,0,1,1,58,45a4.67,4.67,0,0,1,1.34.19A5,5,0,0,1,63,50,5.05,5.05,0,0,1,62.17,52.77Z"/><path class="cls-2" d="M52,80H6a6,6,0,0,1-6-6V6A6,6,0,0,1,6,0H52a6,6,0,0,1,6,6V22a2,2,0,0,1-4,0V6a2,2,0,0,0-2-2H6A2,2,0,0,0,4,6V74a2,2,0,0,0,2,2H52a2,2,0,0,0,2-2V70a2,2,0,0,1,4,0v4A6,6,0,0,1,52,80Z"/><path class="cls-2" d="M10,12H2A2,2,0,0,1,2,8h8a2,2,0,0,1,0,4Z"/><path class="cls-2" d="M56,12H18a2,2,0,0,1,0-4H56a2,2,0,0,1,0,4Z"/><path class="cls-4" d="M78,8H64a2,2,0,0,1,0-4H78a2,2,0,0,1,0,4Z"/><path class="cls-4" d="M74,24H64a2,2,0,0,1,0-4H74a2,2,0,0,1,0,4Z"/><path class="cls-2" d="M39,72H2a2,2,0,0,1,0-4H39a2,2,0,0,1,0,4Z"/><path class="cls-2" d="M18,28H10a2,2,0,0,1-2-2V18a2,2,0,0,1,2-2h8a2,2,0,0,1,2,2v8A2,2,0,0,1,18,28Zm-6-4h4V20H12Z"/><path class="cls-2" d="M18,46H10a2,2,0,0,1-2-2V36a2,2,0,0,1,2-2h8a2,2,0,0,1,2,2v8A2,2,0,0,1,18,46Zm-6-4h4V38H12Z"/><path class="cls-2" d="M33,46H25a2,2,0,0,1-2-2V36a2,2,0,0,1,2-2h8a2,2,0,0,1,2,2v8A2,2,0,0,1,33,46Zm-6-4h4V38H27Z"/><path class="cls-2" d="M18,64H10a2,2,0,0,1-2-2V54a2,2,0,0,1,2-2h8a2,2,0,0,1,2,2v8A2,2,0,0,1,18,64Zm-6-4h4V56H12Z"/><path class="cls-2" d="M33,28H25a2,2,0,0,1-2-2V18a2,2,0,0,1,2-2h8a2,2,0,0,1,2,2v8A2,2,0,0,1,33,28Zm-6-4h4V20H27Z"/><path class="cls-2" d="M48,28H40a2,2,0,0,1-2-2V18a2,2,0,0,1,2-2h8a2,2,0,0,1,2,2v8A2,2,0,0,1,48,28Zm-6-4h4V20H42Z"/><path class="cls-2" d="M33,64H25a2,2,0,0,1-2-2V54a2,2,0,0,1,2-2h8a2,2,0,0,1,2,2v8A2,2,0,0,1,33,64Zm-6-4h4V56H27Z"/><path class="cls-4" d="M69,16H64a2,2,0,0,1,0-4h5a2,2,0,0,1,0,4Z"/></g></g></svg>