<svg xmlns="http://www.w3.org/2000/svg" viewBox="0 0 80 80"><defs><style>.cls-1{fill:#fff;}.cls-2{fill:#191919;}.cls-3{fill:#e3e3e3;}.cls-4{fill:#c03;}</style></defs><title>3</title><g id="Vrstva_2" data-name="Vrstva 2"><g id="Vrstva_1-2" data-name="Vrstva 1"><rect class="cls-1" width="80" height="80"/><path class="cls-2" d="M52,80H6a6,6,0,0,1-6-6V6A6,6,0,0,1,6,0H52a6,6,0,0,1,6,6V27a2,2,0,0,1-4,0V6a2,2,0,0,0-2-2H6A2,2,0,0,0,4,6V74a2,2,0,0,0,2,2H52a2,2,0,0,0,2-2V70a2,2,0,0,1,4,0v4A6,6,0,0,1,52,80Z"/><path class="cls-2" d="M10,12H2A2,2,0,0,1,2,8h8a2,2,0,0,1,0,4Z"/><path class="cls-2" d="M56,12H18a2,2,0,0,1,0-4H56a2,2,0,0,1,0,4Z"/><path class="cls-2" d="M39,72H2a2,2,0,0,1,0-4H39a2,2,0,0,1,0,4Z"/><path class="cls-2" d="M18,28H10a2,2,0,0,1-2-2V18a2,2,0,0,1,2-2h8a2,2,0,0,1,2,2v8A2,2,0,0,1,18,28Zm-6-4h4V20H12Z"/><path class="cls-2" d="M18,46H10a2,2,0,0,1-2-2V36a2,2,0,0,1,2-2h8a2,2,0,0,1,2,2v8A2,2,0,0,1,18,46Zm-6-4h4V38H12Z"/><path class="cls-2" d="M33,46H25a2,2,0,0,1-2-2V36a2,2,0,0,1,2-2h8a2,2,0,0,1,2,2v8A2,2,0,0,1,33,46Zm-6-4h4V38H27Z"/><path class="cls-2" d="M18,64H10a2,2,0,0,1-2-2V54a2,2,0,0,1,2-2h8a2,2,0,0,1,2,2v8A2,2,0,0,1,18,64Zm-6-4h4V56H12Z"/><path class="cls-2" d="M33,28H25a2,2,0,0,1-2-2V18a2,2,0,0,1,2-2h8a2,2,0,0,1,2,2v8A2,2,0,0,1,33,28Zm-6-4h4V20H27Z"/><path class="cls-2" d="M48,28H40a2,2,0,0,1-2-2V18a2,2,0,0,1,2-2h8a2,2,0,0,1,2,2v8A2,2,0,0,1,48,28Zm-6-4h4V20H42Z"/><path class="cls-2" d="M33,64H25a2,2,0,0,1-2-2V54a2,2,0,0,1,2-2h8a2,2,0,0,1,2,2v8A2,2,0,0,1,33,64Zm-6-4h4V56H27Z"/><rect class="cls-3" x="40" y="36" width="38" height="26"/><path class="cls-2" d="M78,64H40a2,2,0,0,1-2-2V36a2,2,0,0,1,2-2H78a2,2,0,0,1,2,2V62A2,2,0,0,1,78,64ZM42,60H76V38H42Z"/><rect class="cls-2" x="40" y="42" width="38" height="4"/><path class="cls-2" d="M51,57H48a2,2,0,0,1,0-4h3a2,2,0,0,1,0,4Z"/><path class="cls-2" d="M60,57H57a2,2,0,0,1,0-4h3a2,2,0,0,1,0,4Z"/><path class="cls-2" d="M69,57H66a2,2,0,0,1,0-4h3a2,2,0,0,1,0,4Z"/><path class="cls-4" d="M77.78,22.22a2,2,0,0,1-1.41-.59,9,9,0,0,0-12.74,0,2,2,0,1,1-2.82-2.82,13,13,0,0,1,18.38,0,2,2,0,0,1-1.41,3.41Z"/><path class="cls-4" d="M73.54,28.46a2,2,0,0,1-1.41-.58,3.08,3.08,0,0,0-4.26,0A2,2,0,0,1,65.05,25,7,7,0,0,1,75,25a2,2,0,0,1-1.41,3.42Z"/></g></g></svg>