<svg xmlns="http://www.w3.org/2000/svg" viewBox="0 0 80.02 80"><defs><style>.cls-1{fill:#fff;}.cls-2{fill:#191919;}.cls-3{fill:#c03;}.cls-4{fill:#e3e3e3;}</style></defs><title>1</title><g id="Vrstva_2" data-name="Vrstva 2"><g id="Vrstva_1-2" data-name="Vrstva 1"><rect class="cls-1" width="80" height="80"/><path class="cls-2" d="M52,80H6a6,6,0,0,1-6-6V6A6,6,0,0,1,6,0H52a6,6,0,0,1,6,6v9a2,2,0,0,1-4,0V6a2,2,0,0,0-2-2H6A2,2,0,0,0,4,6V74a2,2,0,0,0,2,2H52a2,2,0,0,0,2-2V70a2,2,0,0,1,4,0v4A6,6,0,0,1,52,80Z"/><path class="cls-2" d="M10,12H2A2,2,0,0,1,2,8h8a2,2,0,0,1,0,4Z"/><path class="cls-2" d="M56,12H18a2,2,0,0,1,0-4H56a2,2,0,0,1,0,4Z"/><path class="cls-2" d="M30,72H2a2,2,0,0,1,0-4H30a2,2,0,0,1,0,4Z"/><path class="cls-2" d="M18,28H10a2,2,0,0,1-2-2V18a2,2,0,0,1,2-2h8a2,2,0,0,1,2,2v8A2,2,0,0,1,18,28Zm-6-4h4V20H12Z"/><path class="cls-2" d="M18,46H10a2,2,0,0,1-2-2V36a2,2,0,0,1,2-2h8a2,2,0,0,1,2,2v8A2,2,0,0,1,18,46Zm-6-4h4V38H12Z"/><path class="cls-2" d="M33,46H25a2,2,0,0,1-2-2V36a2,2,0,0,1,2-2h8a2,2,0,0,1,2,2v8A2,2,0,0,1,33,46Zm-6-4h4V38H27Z"/><path class="cls-2" d="M18,64H10a2,2,0,0,1-2-2V54a2,2,0,0,1,2-2h8a2,2,0,0,1,2,2v8A2,2,0,0,1,18,64Zm-6-4h4V56H12Z"/><path class="cls-2" d="M33,28H25a2,2,0,0,1-2-2V18a2,2,0,0,1,2-2h8a2,2,0,0,1,2,2v8A2,2,0,0,1,33,28Zm-6-4h4V20H27Z"/><path class="cls-2" d="M33,64H25a2,2,0,0,1-2-2V54a2,2,0,0,1,2-2h8a2,2,0,0,1,2,2v8A2,2,0,0,1,33,64Zm-6-4h4V56H27Z"/><path class="cls-3" d="M71,67l-.29,0L48.94,63.76A2,2,0,0,1,47.63,63a2,2,0,0,1-.37-1.49l7-47.48a2,2,0,0,1,2.27-1.69l21.76,3.22a2,2,0,0,1,1.31.78A2,2,0,0,1,80,17.81L73,65.29A2,2,0,0,1,71,67ZM51.51,60.1l17.8,2.63L75.75,19.2,57.94,16.57Z"/><path class="cls-3" d="M76.56,29.41l-.3,0L64.39,27.63a2,2,0,0,1,.59-4l11.87,1.76a2,2,0,0,1-.29,4Z"/><path class="cls-3" d="M58.75,26.78l-.29,0-4-.58a2,2,0,0,1-1.68-2.27,2,2,0,0,1,2.27-1.69L59,22.8a2,2,0,0,1-.29,4Z"/><path class="cls-3" d="M66.24,58.21l-.3,0a2,2,0,0,1-1.68-2.27l3.21-21.77a2,2,0,0,1,4,.59L68.21,56.5A2,2,0,0,1,66.24,58.21Z"/><path class="cls-3" d="M62.79,40.51a1.51,1.51,0,0,1-.3,0,2,2,0,0,1-1.68-2.27l.73-4.94a2,2,0,1,1,3.95.58l-.73,5A2,2,0,0,1,62.79,40.51Z"/><path class="cls-3" d="M56.2,57.74l-.3,0a2,2,0,0,1-1.68-2.27l.29-2a2,2,0,0,1,4,.59l-.3,2A2,2,0,0,1,56.2,57.74Z"/><path class="cls-3" d="M57.37,49.82l-.3,0a2,2,0,0,1-1.68-2.27l.29-2a2,2,0,1,1,4,.59l-.3,2A2,2,0,0,1,57.37,49.82Z"/><rect class="cls-4" x="27" y="35" width="48" height="22" transform="translate(5 97) rotate(-90)"/><path class="cls-2" d="M62,72H40a2,2,0,0,1-2-2V22a2,2,0,0,1,2-2H62a2,2,0,0,1,2,2V70A2,2,0,0,1,62,72ZM42,68H60V24H42Z"/><path class="cls-2" d="M62,34H50a2,2,0,0,1,0-4H62a2,2,0,0,1,0,4Z"/><path class="cls-2" d="M44,34H40a2,2,0,0,1,0-4h4a2,2,0,0,1,0,4Z"/><path class="cls-2" d="M56,64a2,2,0,0,1-2-2V40a2,2,0,0,1,4,0V62A2,2,0,0,1,56,64Z"/><path class="cls-2" d="M50,47a2,2,0,0,1-2-2V40a2,2,0,0,1,4,0v5A2,2,0,0,1,50,47Z"/><path class="cls-2" d="M46,65a2,2,0,0,1-2-2V61a2,2,0,0,1,4,0v2A2,2,0,0,1,46,65Z"/><path class="cls-2" d="M46,57a2,2,0,0,1-2-2V53a2,2,0,0,1,4,0v2A2,2,0,0,1,46,57Z"/></g></g></svg>